HIERARCHY
ROOT SpineBase
{
  OFFSET 0.000000 0.000000 0.000000
  CHANNELS 6 Xposition Yposition Zposition Zrotation Xrotation Yrotation
  JOINT SpineMid
  {
    OFFSET 0.000000 29.502669 0.000000
    CHANNELS 3 Zrotation Xrotation Yrotation
    JOINT SpineShoulder
    {
      OFFSET -0.308290 22.068552 -0.590969
      CHANNELS 3 Zrotation Xrotation Yrotation
      JOINT Neck
      {
        OFFSET -0.146105 7.324721 -0.484023
        CHANNELS 3 Zrotation Xrotation Yrotation
        JOINT Head
        {
          OFFSET -1.656282 8.528373 5.626933
          CHANNELS 3 Zrotation Xrotation Yrotation
          End Site
          {
            OFFSET 0 0 0
          }
        }
      }
      JOINT ShoulderLeft
      {
        OFFSET -3.806207 -2.257204 13.526280
        CHANNELS 3 Zrotation Xrotation Yrotation
        JOINT ElbowLeft
        {
          OFFSET -6.170315 -23.588631 -15.112122
          CHANNELS 3 Zrotation Xrotation Yrotation
          JOINT WristLeft
          {
            OFFSET -9.034254 -26.227373 -1.812769
            CHANNELS 3 Zrotation Xrotation Yrotation
            JOINT HandLeft
            {
              OFFSET 1.708389 -5.783883 -8.079672
              CHANNELS 3 Zrotation Xrotation Yrotation
              JOINT HandTipLeft
              {
                OFFSET -1.902551 -3.231496 -2.972033
                CHANNELS 3 Zrotation Xrotation Yrotation
                End Site
                {
                  OFFSET 0 0 0
                }
              }
              JOINT ThumbLeft
              {
                OFFSET 2.125554 -2.396843 0.451022
                CHANNELS 3 Zrotation Xrotation Yrotation
                End Site
                {
                  OFFSET 0 0 0
                }
              }
            }
          }
        }
      }
      JOINT ShoulderRight
      {
        OFFSET -2.396202 -3.705860 -11.728922
        CHANNELS 3 Zrotation Xrotation Yrotation
        JOINT ElbowRight
        {
          OFFSET -7.101324 -22.932545 -5.248352
          CHANNELS 3 Zrotation Xrotation Yrotation
          JOINT WristRight
          {
            OFFSET -6.698176 -23.904244 2.178866
            CHANNELS 3 Zrotation Xrotation Yrotation
            JOINT HandRight
            {
              OFFSET -1.632211 -7.143574 1.187961
              CHANNELS 3 Zrotation Xrotation Yrotation
              JOINT HandTipRight
              {
                OFFSET -3.449241 -6.990571 0.264473
                CHANNELS 3 Zrotation Xrotation Yrotation
                End Site
                {
                  OFFSET 0 0 0
                }
              }
              JOINT ThumbRight
              {
                OFFSET 1.521073 -2.072177 -0.222748
                CHANNELS 3 Zrotation Xrotation Yrotation
                End Site
                {
                  OFFSET 0 0 0
                }
              }
            }
          }
        }
      }
    }
  }
  JOINT HipLeft
  {
    OFFSET -1.558728 0.099604 -0.811364
    CHANNELS 3 Zrotation Xrotation Yrotation
    JOINT KneeLeft
    {
      OFFSET 1.887649 -43.173726 0.455379
      CHANNELS 3 Zrotation Xrotation Yrotation
      JOINT AnkleLeft
      {
        OFFSET 13.027219 -30.776890 4.526312
        CHANNELS 3 Zrotation Xrotation Yrotation
        JOINT FootLeft
        {
          OFFSET -3.519134 -7.258406 0.799813
          CHANNELS 3 Zrotation Xrotation Yrotation
          End Site
          {
            OFFSET 0 0 0
          }
        }
      }
    }
  }
  JOINT HipRight
  {
    OFFSET -0.537605 1.848970 -5.380838
    CHANNELS 3 Zrotation Xrotation Yrotation
    JOINT KneeRight
    {
      OFFSET 12.727452 -42.635886 7.576567
      CHANNELS 3 Zrotation Xrotation Yrotation
      JOINT AnkleRight
      {
        OFFSET -18.164292 -33.871197 -8.511323
        CHANNELS 3 Zrotation Xrotation Yrotation
        JOINT FootRight
        {
          OFFSET -5.465478 -6.576485 0.104111
          CHANNELS 3 Zrotation Xrotation Yrotation
          End Site
          {
            OFFSET 0 0 0
          }
        }
      }
    }
  }
}
MOTION
Frames: 9
Frame Time: 0.033333
104.147626 81.776610 333.156855 -2.088442 0.868652 78.404505 -0.139848 -0.296712 -78.430150 0.857629 -0.123135 -0.009569 0.120593 -0.464300 0.626625 0.000000 0.000000 0.000000 0.137999 -5.439202 1.875707 4.677945 16.756552 -6.983356 -16.875956 -57.400863 4.566527 31.366847 6.562708 -21.061076 0.000000 0.000000 0.000000 0.000000 0.000000 0.000000 -2.347469 -0.762517 0.837831 1.942180 -0.376347 -0.792967 3.137477 -10.385518 2.880209 2.290205 12.805149 -4.233139 0.000000 0.000000 0.000000 0.000000 0.000000 0.000000 2.030014 -2.712512 -78.179840 1.062188 -2.165274 0.307953 -40.639168 17.993773 -6.311838 0.000000 0.000000 0.000000 -3.157337 -1.011642 -79.507106 6.596901 4.360743 -1.558718 0.142107 -4.796902 5.119778 0.000000 0.000000 0.000000
104.211660 81.926547 333.303420 -1.865106 0.839547 77.706992 -0.134584 -0.158592 -77.732434 0.741632 -0.121550 -0.014448 0.124443 -0.346640 0.669003 0.000000 0.000000 0.000000 0.067799 -4.798592 1.762572 4.906180 16.668611 -7.077647 -18.907947 -61.483052 3.727386 36.711932 5.427854 -31.520326 0.000000 0.000000 0.000000 0.000000 0.000000 0.000000 -2.367591 -0.766758 0.850135 1.932061 -0.350015 -0.816656 5.032516 -11.151822 3.552757 -0.551238 13.419085 -4.211874 0.000000 0.000000 0.000000 0.000000 0.000000 0.000000 2.488277 -1.147678 -77.490586 3.720476 -3.567571 0.361328 -41.379796 17.981464 -5.788053 0.000000 0.000000 0.000000 -2.958829 -0.533331 -78.755755 6.858294 4.120737 -1.588332 2.078831 -5.009045 5.577996 0.000000 0.000000 0.000000
104.117725 81.963990 333.434092 -1.858797 0.847652 77.741759 -0.129276 -0.129194 -77.767368 0.699795 -0.119787 -0.018072 0.206074 -0.284135 0.677357 0.000000 0.000000 0.000000 0.292896 -3.452171 1.301712 4.430345 14.945603 -6.287943 -20.214645 -63.111574 3.074957 38.568482 3.380155 -35.150668 0.000000 0.000000 0.000000 0.000000 0.000000 0.000000 -2.308664 -0.898305 0.884784 1.828099 -0.284749 -0.849900 6.265732 -11.611180 3.976304 -2.647269 14.824366 -4.594150 0.000000 0.000000 0.000000 0.000000 0.000000 0.000000 3.263198 0.530129 -77.524285 7.581094 -6.177914 0.430849 -36.609073 15.954253 -4.630111 0.000000 0.000000 0.000000 -3.099013 -1.165423 -78.778494 6.106341 4.548090 -1.686170 -0.510785 -3.668670 3.913708 0.000000 0.000000 0.000000
104.065375 81.951812 333.571352 -1.810289 0.842019 77.781904 -0.130337 -0.076658 -77.808076 0.668153 -0.110572 -0.020183 0.457147 -0.122926 0.572425 0.000000 0.000000 0.000000 0.479415 -2.532925 0.963035 3.587205 12.409505 -5.123489 -19.609360 -61.060362 3.111102 39.723904 5.204298 -38.373138 0.000000 0.000000 0.000000 0.000000 0.000000 0.000000 -2.091444 -1.123137 0.907046 1.658907 0.112116 -0.922097 6.485096 -12.458745 4.282073 -3.831642 15.152301 -4.316304 0.000000 0.000000 0.000000 0.000000 0.000000 0.000000 3.614827 1.466403 -77.579893 9.150680 -7.428562 0.438971 -32.768600 13.357473 -3.654803 0.000000 0.000000 0.000000 -3.060327 -1.179552 -78.795081 5.991459 4.655567 -1.771567 0.105811 -3.647865 3.907106 0.000000 0.000000 0.000000
104.038646 81.974251 333.758053 -1.724921 0.814114 77.871064 -0.124379 -0.021116 -77.897507 0.639822 -0.100043 -0.020753 1.091221 -0.586545 0.065962 0.000000 0.000000 0.000000 0.758257 -2.588168 0.802686 2.975077 12.527076 -4.905934 -19.160858 -60.636017 3.555456 37.601240 7.775105 -33.615655 0.000000 0.000000 0.000000 0.000000 0.000000 0.000000 -1.719284 -1.504034 0.936250 0.954493 0.210797 -0.901887 6.370822 -11.595328 3.929470 -3.888212 15.082928 -4.350581 0.000000 0.000000 0.000000 0.000000 0.000000 0.000000 3.785971 2.131294 -77.690206 9.758122 -8.074355 0.378683 -28.690353 11.417432 -2.941875 0.000000 0.000000 0.000000 -2.870752 -1.087199 -78.816042 5.978724 4.554528 -1.868887 0.017658 -3.563752 3.801437 0.000000 0.000000 0.000000
104.042445 82.021617 333.946931 -1.626478 0.802142 78.220208 -0.140323 0.029775 -78.246798 0.614326 -0.097114 -0.020868 1.070558 -0.572316 0.064643 0.000000 0.000000 0.000000 0.883892 -1.983137 0.553717 2.472430 11.549346 -4.412499 -19.533228 -60.893606 3.747800 38.510445 6.126148 -35.500514 0.000000 0.000000 0.000000 0.000000 0.000000 0.000000 -1.388596 -1.905470 0.982901 0.316481 0.067508 -0.817486 7.559533 -10.672971 3.878961 -5.859644 15.462146 -4.440185 0.000000 0.000000 0.000000 0.000000 0.000000 0.000000 3.834642 3.053642 -78.077834 11.164124 -8.188146 0.627078 -21.081538 5.833945 -1.360538 0.000000 0.000000 0.000000 -2.686013 -0.916171 -79.096348 6.086407 4.362911 -1.948581 -0.740756 -3.478632 3.659594 0.000000 0.000000 0.000000
104.083851 82.059045 334.146162 -1.504633 0.758999 78.455407 -0.164322 0.077578 -78.482610 0.576054 -0.103978 -0.021641 1.038023 -0.508197 0.063032 0.000000 0.000000 0.000000 0.879283 -1.582338 0.445670 2.126212 10.976849 -4.146014 -19.762467 -61.297753 3.724849 38.444358 7.909458 -35.258908 0.000000 0.000000 0.000000 0.000000 0.000000 0.000000 -1.025930 -2.368214 1.057442 -0.309480 0.040044 -0.747886 7.490670 -8.821530 3.255569 -7.261913 13.290026 -3.496818 0.000000 0.000000 0.000000 0.000000 0.000000 0.000000 3.906130 3.642041 -78.340702 12.352983 -8.550406 0.774250 -3.487735 -0.391332 2.640620 0.000000 0.000000 0.000000 -2.473662 -0.674607 -79.268147 6.237818 4.217184 -2.051351 -1.828381 -3.464308 3.525119 0.000000 0.000000 0.000000
104.065307 82.142597 334.315643 -1.409179 0.799821 79.810880 -0.213635 0.088869 -79.836790 0.554688 -0.127917 -0.020776 0.980253 -0.476146 0.059326 0.000000 0.000000 0.000000 0.799239 -1.409748 0.418815 1.821293 10.780459 -4.038030 -19.617371 -61.475254 3.692835 37.195879 9.795166 -32.352089 0.000000 0.000000 0.000000 0.000000 0.000000 0.000000 -0.862255 -2.561523 1.076983 -0.734880 -0.430996 -0.592686 7.997425 -6.949528 2.743820 -7.180029 12.204471 -3.500316 0.000000 0.000000 0.000000 0.000000 0.000000 0.000000 3.911024 3.625406 -79.703148 12.235034 -8.360500 0.798862 5.627742 -0.970620 3.812656 0.000000 0.000000 0.000000 -2.489855 -0.530966 -80.600515 6.300684 4.260774 -2.146072 -2.744615 -3.394140 3.348257 0.000000 0.000000 0.000000
104.064048 82.068042 334.608669 -1.248999 0.725581 79.924064 -0.204329 0.116711 -79.948750 0.530744 -0.112031 -0.017263 0.869319 -0.431811 0.052088 0.000000 0.000000 0.000000 0.529248 -1.540222 0.557327 1.716704 11.087342 -4.189989 -19.207736 -61.635844 3.437922 36.407117 9.220143 -30.326280 0.000000 0.000000 0.000000 0.000000 0.000000 0.000000 -1.072639 -2.652628 1.130996 -0.592048 -0.784869 -0.526991 8.989129 -6.173115 2.673630 -6.076209 9.415145 -2.670367 0.000000 0.000000 0.000000 0.000000 0.000000 0.000000 3.732281 3.543645 -79.825996 11.545745 -7.411272 0.869010 7.417328 -1.359582 3.667554 0.000000 0.000000 0.000000 -2.162962 -0.352859 -80.612639 6.200322 4.194690 -2.319974 -3.569831 -3.726239 3.438391 0.000000 0.000000 0.000000
